<?xml version="1.0" encoding="UTF-8" standalone="no"?>
<!DOCTYPE svg PUBLIC "-//W3C//DTD SVG 1.1//EN" "http://www.w3.org/Graphics/SVG/1.1/DTD/svg11.dtd">
<svg xmlns="http://www.w3.org/2000/svg" version="1.1" viewBox="0.00 0.00 800.00 800.00">
<g stroke-width="2.00" fill="none" stroke-linecap="butt">
<path stroke="#771517" vector-effect="non-scaling-stroke" d="
  M 717.91 287.32
  Q 719.24 288.59 721.04 288.82"
/>
<path stroke="#771517" vector-effect="non-scaling-stroke" d="
  M 724.45 311.83
  Q 714.30 309.04 705.98 302.80"
/>
<path stroke="#771517" vector-effect="non-scaling-stroke" d="
  M 705.41 302.13
  Q 700.41 299.21 696.88 295.87
  Q 693.52 292.69 688.21 286.67"
/>
<path stroke="#771517" vector-effect="non-scaling-stroke" d="
  M 228.80 400.73
  Q 228.82 400.54 228.86 400.37
  Q 228.92 399.99 229.19 399.72
  L 266.27 362.44"
/>
<path stroke="#771517" vector-effect="non-scaling-stroke" d="
  M 179.26 475.05
  Q 179.17 473.07 176.98 471.79
  C 171.41 468.54 164.37 467.96 158.06 467.92
  Q 137.72 467.79 117.22 467.95"
/>
<path stroke="#771517" vector-effect="non-scaling-stroke" d="
  M 117.17 463.22
  Q 117.51 464.16 117.35 465.36
  Q 117.34 465.38 117.33 465.38
  Q 117.25 465.38 117.36 465.38
  Q 117.40 465.38 117.40 465.34
  Q 117.31 448.17 117.38 431.00
  Q 117.43 418.13 117.28 405.27"
/>
<path stroke="#771517" vector-effect="non-scaling-stroke" d="
  M 137.56 379.49
  Q 137.25 378.77 136.25 378.76
  Q 135.76 378.75 135.38 379.30"
/>
<path stroke="#771517" vector-effect="non-scaling-stroke" d="
  M 175.95 472.53
  Q 167.67 470.03 161.51 469.76
  Q 156.08 469.53 147.15 470.65"
/>
</g>
<path fill="#ed292d" d="
  M 734.62 250.13
  Q 736.60 250.86 737.85 251.38
  Q 739.40 252.02 740.29 253.41
  Q 754.04 274.78 768.13 296.59
  Q 768.58 297.29 768.33 298.03
  Q 767.61 300.20 765.47 299.38
  Q 741.02 290.07 717.48 281.80
  Q 715.84 281.22 714.70 279.48
  Q 707.75 268.81 700.87 257.96
  A 0.35 0.35 0.0 0 1 701.26 257.43
  Q 714.32 260.96 728.50 265.92
  Q 729.51 266.28 731.31 265.88
  Q 731.81 265.77 732.01 265.29
  C 732.65 263.69 732.54 261.12 730.54 260.44
  Q 713.72 254.64 701.30 251.42
  Q 691.25 248.81 684.03 257.43
  Q 683.64 257.89 683.71 258.50
  Q 684.33 263.52 679.40 264.91
  Q 678.17 265.25 677.56 266.33
  Q 673.63 273.30 668.42 277.94
  C 666.47 279.68 663.75 280.86 661.13 280.80
  Q 659.39 280.77 657.70 280.78
  Q 657.19 280.79 656.74 281.02
  L 649.93 284.53
  A 3.19 3.18 48.6 0 1 646.67 284.32
  L 637.79 278.19
  A 2.15 2.13 -42.0 0 0 635.53 278.08
  Q 632.74 279.63 629.55 280.67
  Q 626.77 281.57 626.94 278.65
  L 627.21 274.06
  Q 627.38 271.15 630.11 270.11
  L 636.59 267.63
  A 1.37 1.35 -37.6 0 1 637.84 267.78
  Q 641.97 270.65 645.80 273.40
  Q 648.83 275.57 651.72 273.51
  C 653.74 272.07 656.14 271.08 658.62 271.13
  Q 660.43 271.17 662.07 270.53
  Q 669.03 267.82 673.63 263.23
  Q 673.96 262.90 674.02 262.44
  Q 674.19 261.24 674.06 259.98
  C 673.79 257.41 675.40 255.18 678.06 255.06
  C 679.64 255.00 681.28 254.21 682.33 253.06
  Q 685.99 249.04 691.14 247.06
  A 1.66 1.66 0.0 0 0 692.12 244.97
  Q 691.59 243.46 690.63 242.11
  Q 688.10 238.56 686.67 235.46
  A 1.65 1.64 -2.3 0 1 688.73 233.23
  Q 711.44 241.50 734.62 250.13
  Z"
/>
<path fill="#ed292d" d="
  M 717.91 287.32
  Q 719.24 288.59 721.04 288.82
  Q 722.66 290.25 723.64 290.63
  Q 733.32 294.37 743.02 297.52
  A 1.28 1.27 28.7 0 1 743.61 299.54
  Q 740.10 303.83 736.41 308.62
  C 733.82 311.98 729.36 312.49 725.51 311.46
  Q 724.98 311.32 724.45 311.83
  Q 714.30 309.04 705.98 302.80
  Q 705.80 302.48 705.41 302.13
  Q 700.41 299.21 696.88 295.87
  Q 693.52 292.69 688.21 286.67
  Q 688.22 285.51 687.62 284.71
  Q 684.01 279.92 682.60 274.60
  A 2.16 2.15 -15.2 0 1 684.11 271.97
  C 687.88 270.92 689.36 267.33 689.28 263.70
  C 689.22 261.27 690.44 259.41 692.38 258.05
  A 1.03 1.03 0.0 0 1 693.85 258.36
  Q 701.49 270.90 710.18 284.01
  Q 712.86 288.05 717.91 287.32
  Z"
/>
<path fill="#000000" d="
  M 688.21 286.67
  Q 693.52 292.69 696.88 295.87
  Q 700.41 299.21 705.41 302.13
  L 695.37 301.32
  A 1.31 1.31 0.0 0 0 693.96 302.63
  L 694.03 339.93
  A 1.51 1.50 2.3 0 0 695.42 341.43
  L 705.15 342.20
  A 0.74 0.74 0.0 0 0 705.95 341.46
  L 705.98 302.80
  Q 714.30 309.04 724.45 311.83
  Q 723.98 311.99 723.96 312.36
  Q 723.28 330.23 722.93 348.12
  Q 722.89 350.35 722.14 351.56
  Q 721.29 352.93 720.57 354.34
  Q 720.31 354.84 719.75 354.85
  Q 702.25 355.11 684.72 355.27
  Q 683.24 355.29 681.80 354.83
  Q 679.54 354.10 677.51 352.71
  A 1.03 1.02 17.1 0 1 677.07 351.89
  Q 676.36 322.98 676.16 294.74
  Q 676.13 291.44 678.11 288.68
  A 1.85 1.85 0.0 0 1 679.55 287.91
  Q 683.50 287.76 687.42 287.45
  Q 687.71 287.42 687.95 287.26
  Q 688.44 286.93 688.21 286.67
  Z"
/>
<path fill="#000000" d="
  M 321.49 300.70
  A 1.45 1.45 0.0 0 0 320.03 302.31
  Q 320.61 307.65 320.67 312.21
  Q 320.85 326.60 320.90 341.94
  Q 320.90 342.53 321.45 342.76
  C 322.65 343.24 323.95 342.87 325.21 343.22
  Q 328.40 344.13 332.11 343.91
  A 0.84 0.84 0.0 0 0 332.88 343.23
  L 334.31 335.47
  Q 334.42 334.90 335.00 334.88
  Q 341.86 334.71 348.43 335.53
  A 1.73 1.73 0.0 0 1 349.95 337.22
  L 350.11 349.20
  Q 350.12 349.88 349.72 350.42
  Q 348.71 351.81 348.16 353.48
  A 2.27 2.25 8.5 0 1 346.05 355.03
  Q 329.34 355.33 312.15 355.49
  Q 307.13 355.54 303.36 352.25
  Q 302.99 351.94 302.99 351.46
  L 302.99 292.76
  A 2.02 1.98 60.0 0 1 303.24 291.79
  C 304.43 289.67 304.55 287.09 307.78 287.23
  Q 326.74 288.05 345.80 288.17
  A 1.86 1.83 66.6 0 1 347.08 288.69
  L 350.56 292.07
  A 1.75 1.73 23.8 0 1 351.08 293.40
  C 350.93 295.79 351.10 298.26 350.74 300.65
  Q 350.09 305.03 349.89 309.26
  A 1.77 1.76 1.8 0 1 348.09 310.94
  L 335.03 310.66
  A 0.71 0.70 -8.0 0 1 334.37 310.17
  Q 333.16 306.52 333.02 302.79
  A 2.07 2.06 -0.7 0 0 330.98 300.81
  L 321.49 300.70
  Z"
/>
<path fill="#000000" d="
  M 360.97 353.16
  Q 360.82 353.15 360.64 353.14
  Q 360.59 353.14 360.56 353.10
  Q 359.90 351.82 359.86 350.51
  Q 359.03 321.88 359.23 293.70
  C 359.24 292.02 360.04 290.69 360.74 289.22
  A 2.14 2.12 -77.6 0 1 362.63 288.00
  Q 380.96 287.70 399.67 287.25
  C 403.61 287.15 406.88 290.16 406.87 294.08
  Q 406.82 316.42 406.68 340.14
  Q 406.66 344.92 405.96 349.50
  C 405.71 351.17 404.65 352.51 403.92 354.05
  A 1.69 1.67 12.4 0 1 402.42 355.00
  Q 385.73 355.04 368.02 355.44
  Q 364.69 355.52 361.48 353.34
  A 1.19 1.12 -24.0 0 0 360.97 353.16
  Z
  M 377.03 340.22
  A 0.83 0.83 0.0 0 0 377.76 341.04
  L 388.05 342.22
  A 0.83 0.83 0.0 0 0 388.97 341.40
  L 389.11 303.15
  A 0.83 0.83 0.0 0 0 388.34 302.32
  L 377.89 301.50
  A 0.83 0.83 0.0 0 0 376.99 302.33
  L 377.03 340.22
  Z"
/>
<path fill="#000000" d="
  M 435.52 318.71
  Q 434.05 317.31 434.09 319.34
  Q 434.21 326.11 433.72 332.08
  C 433.03 340.39 432.93 346.00 432.96 352.98
  A 1.79 1.79 0.0 0 1 431.18 354.78
  L 415.32 354.82
  A 0.38 0.37 89.2 0 1 414.95 354.45
  Q 414.83 337.39 415.60 319.58
  C 416.08 308.56 416.06 298.76 416.06 288.23
  A 1.04 1.03 -89.7 0 1 417.10 287.19
  L 431.82 287.40
  A 3.18 3.17 74.4 0 1 434.48 288.90
  L 442.36 301.65
  A 1.08 1.08 0.0 0 0 444.21 301.63
  L 451.67 289.08
  A 2.41 2.40 -74.4 0 1 453.78 287.89
  L 470.28 288.15
  A 0.79 0.79 0.0 0 1 471.06 288.95
  Q 470.89 311.23 471.73 339.10
  Q 471.97 347.09 471.78 354.28
  Q 471.77 354.82 471.23 354.82
  L 455.47 354.81
  A 1.36 1.36 0.0 0 1 454.11 353.47
  C 454.01 346.46 454.27 339.36 453.61 332.31
  Q 453.02 325.99 453.08 318.76
  Q 453.11 316.10 451.38 318.12
  Q 450.24 319.45 449.26 321.19
  C 447.68 324.01 445.52 326.44 443.89 329.20
  A 0.64 0.63 42.5 0 1 442.83 329.24
  Q 439.88 325.11 437.34 320.93
  Q 436.62 319.75 435.52 318.71
  Z"
/>
<path fill="#000000" d="
  M 717.91 287.32
  Q 719.78 287.00 721.04 288.82
  Q 719.24 288.59 717.91 287.32
  Z"
/>
<path fill="#ed292d" d="
  M 228.80 400.73
  Q 228.82 400.54 228.86 400.37
  Q 228.92 399.99 229.19 399.72
  L 266.27 362.44
  Q 266.54 362.62 266.86 362.65
  Q 267.36 362.71 267.71 362.34
  C 270.04 359.81 271.89 358.68 271.88 354.83
  Q 271.80 324.72 271.72 294.04
  Q 271.72 292.30 269.98 292.25
  Q 265.11 292.10 261.14 292.12
  Q 156.25 292.73 61.15 292.02
  C 59.83 292.01 58.84 293.12 58.85 294.37
  Q 59.02 332.71 58.68 372.43
  Q 58.67 373.50 57.60 373.60
  Q 57.46 373.61 57.32 373.61
  A 1.15 1.14 -4.0 0 1 56.23 372.67
  Q 55.74 369.89 55.74 367.75
  Q 55.70 328.67 55.79 289.36
  A 1.31 1.31 0.0 0 1 57.09 288.06
  Q 117.88 287.62 172.75 287.74
  Q 222.78 287.85 274.54 288.14
  A 0.73 0.72 0.4 0 1 275.26 288.86
  Q 275.14 321.99 275.14 353.87
  Q 275.14 357.08 272.11 358.65
  Q 271.59 358.91 271.29 359.41
  C 269.58 362.24 266.68 363.62 264.32 366.03
  Q 250.50 380.18 235.81 394.80
  Q 234.28 396.32 232.50 397.52
  A 1.24 1.24 0.0 0 0 232.50 399.58
  Q 235.44 401.56 238.91 403.04
  C 255.20 409.97 269.84 422.59 278.71 437.84
  Q 279.70 439.55 280.46 441.29
  C 281.16 442.92 282.12 444.29 282.81 445.95
  Q 290.73 464.89 289.61 485.41
  Q 289.47 487.84 289.19 490.04
  Q 288.90 492.28 288.88 494.67
  C 288.86 496.54 288.11 498.00 288.01 499.81
  C 287.91 501.58 286.92 502.79 286.77 504.47
  Q 286.67 505.65 286.33 506.79
  Q 278.85 532.17 259.44 549.64
  Q 239.37 567.69 210.52 575.66
  C 208.90 576.10 207.44 576.87 205.78 577.07
  Q 204.76 577.19 203.74 577.43
  Q 198.43 578.72 193.39 579.76
  C 191.80 580.08 190.12 579.76 188.63 580.37
  C 186.63 581.19 183.96 580.62 181.75 581.04
  C 176.76 581.98 171.71 582.01 166.43 582.53
  Q 156.93 583.47 147.43 582.60
  C 141.83 582.08 136.18 581.73 130.67 580.99
  C 127.66 580.59 124.62 581.16 121.70 580.22
  C 120.21 579.73 118.69 580.21 117.14 579.74
  C 114.59 578.96 111.94 578.96 109.29 578.45
  Q 102.92 577.20 96.95 575.94
  C 95.79 575.70 93.90 574.98 92.30 574.74
  Q 91.09 574.55 90.42 574.37
  Q 84.92 572.83 79.47 571.16
  Q 78.76 570.94 78.05 570.86
  C 77.31 570.78 76.60 570.17 75.81 569.92
  Q 58.40 564.48 42.45 554.99
  Q 41.87 554.64 41.21 554.46
  Q 39.85 554.07 39.96 552.51
  Q 40.03 551.48 40.51 550.60
  Q 42.68 546.65 44.09 542.62
  C 44.64 541.06 46.03 540.07 46.01 538.40
  Q 46.01 537.81 46.40 537.38
  Q 47.14 536.56 47.57 535.53
  Q 49.23 531.56 51.15 527.72
  C 51.96 526.10 52.23 524.47 53.42 523.01
  Q 54.07 522.22 54.07 521.11
  Q 54.07 520.45 54.52 519.97
  Q 55.54 518.90 55.90 517.49
  C 56.39 515.60 57.81 514.37 58.00 512.44
  A 1.37 1.36 68.8 0 1 58.35 511.64
  C 59.74 510.16 59.84 508.30 60.79 506.58
  Q 62.29 503.85 63.55 500.66
  Q 64.41 498.51 65.54 496.82
  Q 65.78 496.46 65.82 496.03
  C 65.98 494.41 67.00 493.40 67.65 491.95
  Q 71.81 482.63 76.44 472.33
  Q 76.62 471.91 77.08 471.85
  L 77.54 471.79
  Q 78.29 471.69 78.12 472.43
  Q 77.90 473.34 77.37 474.10
  A 1.88 1.87 -27.4 0 0 77.02 475.19
  C 77.01 476.56 75.95 477.43 75.39 478.70
  Q 73.76 482.45 72.00 486.15
  Q 71.35 487.54 70.81 488.96
  C 70.33 490.23 69.58 491.42 69.01 492.71
  Q 62.37 507.62 55.46 522.36
  Q 53.55 526.44 51.76 530.55
  Q 50.05 534.51 48.10 538.54
  Q 45.86 543.16 43.77 548.10
  A 1.76 1.76 0.0 0 0 44.48 550.29
  Q 57.66 558.27 71.81 563.45
  Q 93.91 571.53 118.58 575.07
  Q 127.00 576.27 130.49 576.44
  C 131.54 576.48 132.43 577.04 133.50 577.02
  Q 137.79 576.92 141.86 577.29
  Q 158.50 578.80 173.13 577.20
  Q 175.77 576.91 179.61 577.03
  C 180.81 577.07 181.78 576.36 182.98 576.30
  Q 186.26 576.14 190.88 575.33
  Q 201.70 573.44 209.82 571.11
  Q 231.27 564.95 248.98 552.09
  Q 257.30 546.05 263.46 538.98
  Q 282.99 516.58 285.68 487.00
  Q 286.64 476.47 285.19 466.80
  C 281.08 439.50 265.87 418.69 241.55 406.13
  Q 235.98 403.25 230.43 400.85
  Q 229.59 400.48 228.80 400.73
  Z"
/>
<path fill="#000000" d="
  M 523.95 339.69
  A 0.60 0.59 75.5 0 0 524.47 340.00
  L 536.25 340.00
  Q 536.99 340.00 537.02 339.26
  Q 537.15 335.77 537.75 332.13
  Q 538.39 328.27 534.49 328.22
  Q 529.94 328.17 526.79 327.42
  C 524.52 326.88 522.88 326.83 520.72 326.80
  C 518.26 326.77 516.25 325.80 513.73 325.97
  Q 511.92 326.10 510.39 324.89
  Q 507.61 322.71 507.71 319.29
  Q 508.18 303.57 508.16 293.76
  C 508.15 291.91 510.20 290.19 511.56 289.20
  A 1.49 1.44 -60.1 0 1 512.53 288.92
  Q 517.10 289.23 521.64 288.61
  C 527.67 287.78 533.70 288.44 539.75 287.93
  Q 542.73 287.68 545.66 288.51
  Q 548.74 289.38 551.83 290.22
  A 1.48 1.47 5.3 0 1 552.92 291.53
  Q 553.38 297.24 554.05 303.02
  C 554.41 306.14 552.95 308.97 549.65 308.93
  Q 545.78 308.88 542.05 309.75
  C 537.92 310.71 538.18 305.85 537.21 303.58
  A 0.99 0.99 0.0 0 0 536.33 302.98
  Q 530.82 302.76 526.36 303.83
  A 1.69 1.69 0.0 0 0 525.06 305.55
  Q 525.24 309.09 524.32 312.16
  A 1.44 1.44 0.0 0 0 525.75 314.01
  C 528.40 313.91 530.83 314.85 533.48 314.91
  C 535.82 314.97 538.21 314.79 540.51 315.32
  Q 544.35 316.22 548.44 316.09
  A 2.97 2.97 0.0 0 1 551.30 317.96
  C 552.53 321.09 554.62 323.89 554.44 327.49
  Q 553.89 338.05 554.03 349.90
  A 1.10 1.07 69.7 0 1 553.65 350.75
  L 549.29 354.48
  Q 548.84 354.86 548.26 354.86
  Q 529.01 354.66 512.25 355.11
  Q 510.91 355.14 509.60 354.63
  Q 509.12 354.45 508.99 353.95
  Q 508.56 352.24 507.64 350.75
  C 506.22 348.45 507.08 342.80 507.64 340.59
  C 508.24 338.27 508.17 336.11 508.24 333.75
  A 1.36 1.36 0.0 0 1 509.76 332.44
  Q 514.96 333.09 520.37 332.41
  C 522.31 332.17 523.20 333.50 523.02 335.26
  Q 522.79 337.53 523.95 339.69
  Z"
/>
<path fill="#000000" d="
  M 580.78 340.02
  L 592.30 339.99
  A 0.89 0.89 0.0 0 0 593.18 339.20
  L 594.08 330.69
  A 1.87 1.86 11.2 0 0 592.75 328.71
  C 589.48 327.76 586.50 328.37 583.24 327.51
  C 580.06 326.68 576.95 327.13 573.69 326.35
  Q 571.42 325.80 568.75 325.94
  A 1.86 1.81 58.4 0 1 567.65 325.66
  Q 565.70 324.45 564.12 322.11
  A 2.00 1.97 28.9 0 1 563.78 320.97
  Q 563.99 308.03 564.00 294.93
  C 564.00 292.51 565.69 290.70 567.43 289.31
  A 1.76 1.75 27.7 0 1 568.69 288.92
  Q 573.18 289.24 577.29 288.65
  C 583.13 287.83 588.56 288.41 594.40 287.96
  Q 598.34 287.65 601.38 288.42
  Q 604.73 289.27 608.05 290.26
  Q 608.75 290.48 608.85 291.20
  Q 609.75 297.51 609.88 304.88
  C 609.92 307.22 608.01 308.96 605.73 308.88
  Q 602.45 308.75 599.15 309.56
  Q 594.37 310.73 594.09 305.98
  Q 594.03 304.94 593.60 303.98
  A 1.66 1.66 0.0 0 0 592.21 303.02
  Q 587.68 302.72 583.44 303.51
  Q 580.71 304.02 580.84 306.88
  Q 580.98 309.88 580.33 312.46
  A 1.10 1.09 -77.7 0 0 581.19 313.81
  Q 587.76 315.01 593.23 315.01
  C 596.98 315.01 600.26 316.37 604.12 316.05
  C 605.48 315.94 606.71 316.77 607.33 317.94
  C 609.05 321.22 610.75 324.98 610.56 328.89
  Q 610.03 340.15 609.93 349.45
  Q 609.93 350.07 609.55 350.56
  Q 608.28 352.22 606.56 353.65
  Q 605.06 354.89 602.69 354.87
  Q 586.83 354.71 570.73 355.08
  C 568.99 355.12 567.55 355.50 565.87 354.80
  Q 565.40 354.60 565.24 354.12
  Q 564.67 352.42 563.75 350.84
  C 561.72 347.35 563.77 342.20 563.87 338.52
  Q 563.93 336.20 564.10 334.07
  A 1.97 1.96 -84.5 0 1 566.28 332.27
  Q 571.20 332.83 576.62 332.31
  A 2.21 2.21 0.0 0 1 579.04 334.62
  Q 578.91 337.11 579.90 339.44
  Q 580.15 340.02 580.78 340.02
  Z"
/>
<path fill="#000000" d="
  M 650.22 335.07
  A 1.07 1.07 0.0 0 0 648.98 334.05
  Q 643.68 334.95 637.77 334.78
  A 1.60 1.59 -86.8 0 0 636.14 336.24
  L 634.63 354.20
  Q 634.58 354.74 634.03 354.76
  L 619.74 355.23
  A 0.60 0.59 88.1 0 1 619.13 354.65
  Q 618.98 347.85 619.57 341.63
  C 620.30 334.06 619.61 326.52 620.33 319.35
  C 621.08 311.83 620.94 304.52 621.15 296.99
  C 621.24 293.85 623.05 288.68 627.06 288.92
  Q 631.81 289.20 635.37 288.72
  Q 639.71 288.14 643.40 288.17
  Q 651.74 288.24 660.43 287.80
  C 661.93 287.72 662.44 288.79 663.22 289.79
  Q 664.94 292.00 666.07 294.37
  Q 666.98 296.28 666.95 299.75
  Q 666.76 317.25 667.74 336.23
  Q 668.21 345.32 668.05 354.19
  A 0.69 0.68 89.6 0 1 667.39 354.87
  L 651.97 355.41
  A 0.98 0.98 0.0 0 1 650.96 354.47
  L 650.22 335.07
  Z
  M 649.99 305.06
  A 0.83 0.83 0.0 0 0 649.08 304.25
  L 638.70 305.24
  A 0.83 0.83 0.0 0 0 637.95 306.02
  L 637.20 319.95
  A 0.83 0.83 0.0 0 0 637.98 320.82
  L 649.27 321.53
  A 0.83 0.83 0.0 0 0 650.15 320.70
  L 649.99 305.06
  Z"
/>
<path fill="#000000" d="
  M 498.38 289.34
  L 496.44 352.61
  A 1.23 1.23 0.0 0 1 495.33 353.80
  L 481.24 355.10
  A 1.23 1.23 0.0 0 1 479.90 353.87
  L 480.26 289.48
  A 1.23 1.23 0.0 0 1 481.48 288.26
  L 497.14 288.07
  A 1.23 1.23 0.0 0 1 498.38 289.34
  Z"
/>
<path fill="#000000" d="
  M 266.27 362.44
  L 229.19 399.72
  Q 228.92 399.99 228.86 400.37
  Q 228.82 400.54 228.80 400.73
  L 227.84 401.30
  A 1.25 1.24 -50.0 0 0 228.03 403.53
  Q 248.77 411.41 262.85 428.41
  Q 268.60 435.35 272.92 445.00
  Q 274.12 447.66 274.85 450.33
  Q 275.33 452.06 276.06 453.78
  Q 276.78 455.48 277.05 457.34
  Q 277.52 460.62 278.21 463.71
  Q 278.97 467.17 279.04 470.23
  Q 279.24 479.04 278.90 487.63
  C 278.83 489.49 277.90 491.00 277.87 492.82
  C 277.84 494.84 276.73 496.13 277.01 498.28
  Q 277.07 498.77 276.84 499.21
  C 276.40 500.05 275.95 500.70 275.91 501.70
  Q 275.87 502.50 275.34 503.15
  A 1.69 1.67 -22.5 0 0 275.00 503.96
  Q 274.75 505.62 274.13 507.20
  Q 268.76 520.83 260.58 530.69
  Q 247.34 546.65 228.58 555.86
  Q 213.08 563.46 195.85 566.82
  Q 194.13 567.16 192.50 567.72
  C 190.74 568.33 188.94 567.77 187.15 568.40
  Q 184.91 569.18 182.15 568.89
  C 180.56 568.72 179.58 569.70 178.14 569.76
  Q 171.41 570.05 163.70 570.45
  C 155.16 570.90 146.66 570.19 138.10 569.89
  Q 135.75 569.81 133.54 569.25
  C 130.82 568.56 128.01 569.36 125.30 568.43
  C 123.59 567.84 121.78 568.15 119.95 567.82
  Q 102.21 564.58 91.77 561.57
  Q 88.67 560.67 85.27 559.63
  Q 77.72 557.30 69.90 553.90
  Q 60.45 549.81 50.85 544.20
  A 1.37 1.36 -62.6 0 1 50.30 542.45
  Q 61.44 518.03 72.70 493.39
  C 75.18 487.98 80.22 477.71 83.50 469.63
  Q 84.29 467.70 86.05 468.80
  Q 109.12 483.22 134.80 487.66
  Q 136.97 488.04 139.23 488.16
  C 141.15 488.26 142.66 488.93 144.61 488.96
  Q 153.49 489.09 162.40 488.96
  C 164.41 488.93 165.88 487.97 167.94 488.10
  Q 168.49 488.13 168.93 487.79
  Q 169.60 487.26 170.49 487.13
  C 174.59 486.53 179.39 482.33 180.05 478.52
  Q 180.29 477.17 179.26 475.05
  Q 179.17 473.07 176.98 471.79
  C 171.41 468.54 164.37 467.96 158.06 467.92
  Q 137.72 467.79 117.22 467.95
  L 117.17 463.22
  Q 117.51 464.16 117.35 465.36
  Q 117.34 465.38 117.33 465.38
  Q 117.25 465.38 117.36 465.38
  Q 117.40 465.38 117.40 465.34
  Q 117.31 448.17 117.38 431.00
  Q 117.43 418.13 117.28 405.27
  L 141.95 380.11
  A 0.78 0.78 0.0 0 0 141.48 378.79
  Q 139.54 378.56 137.56 379.49
  Q 137.25 378.77 136.25 378.76
  Q 135.76 378.75 135.38 379.30
  Q 135.32 378.92 134.75 378.92
  Q 100.77 379.13 66.52 378.76
  A 1.59 1.59 0.0 0 1 64.94 377.18
  L 64.84 301.71
  A 1.70 1.69 -0.2 0 1 66.54 300.01
  L 264.25 300.00
  A 1.69 1.69 0.0 0 1 265.94 301.69
  L 266.27 362.44
  Z"
/>
<path fill="#000000" d="
  M 331.86 437.54
  A 0.90 0.89 -21.1 0 0 332.88 437.99
  C 334.46 437.56 335.76 437.27 337.45 437.32
  Q 348.87 437.70 360.42 437.03
  Q 361.93 436.94 362.11 438.45
  Q 363.14 447.12 363.00 456.42
  Q 362.99 457.04 362.37 457.04
  L 309.93 457.01
  A 6.13 6.13 0.0 0 1 303.80 450.74
  Q 303.93 444.75 303.45 437.73
  Q 303.28 435.21 305.45 433.15
  Q 321.64 417.73 338.87 400.79
  C 339.93 399.75 340.31 398.35 339.75 396.92
  Q 339.03 395.08 339.22 393.12
  Q 339.28 392.46 338.68 392.16
  Q 336.35 391.00 334.28 391.07
  Q 330.73 391.19 327.22 390.52
  A 1.97 1.96 -75.2 0 0 324.98 391.83
  L 322.76 398.50
  Q 322.56 399.08 321.94 399.10
  C 317.83 399.18 303.57 400.12 303.78 393.70
  Q 304.09 384.49 304.11 376.55
  A 2.37 2.36 -6.0 0 1 305.99 374.24
  Q 309.29 373.53 312.37 372.30
  Q 313.30 371.94 314.28 371.89
  C 315.29 371.84 315.92 371.25 316.90 371.20
  Q 325.26 370.76 331.08 371.30
  Q 337.46 371.90 342.99 371.90
  Q 349.74 371.91 357.90 373.04
  A 1.38 1.37 83.4 0 1 359.00 373.92
  Q 360.08 376.71 361.14 379.74
  Q 361.24 380.04 361.73 380.52
  Q 362.13 380.91 362.13 381.47
  L 362.11 405.94
  A 2.86 2.83 -23.8 0 1 361.35 407.87
  Q 357.06 412.56 352.33 416.75
  C 345.24 423.04 338.77 429.83 332.10 436.09
  Q 331.44 436.71 331.86 437.54
  Z"
/>
<path fill="#000000" d="
  M 433.90 442.75
  C 433.86 448.05 432.76 452.19 429.92 456.49
  A 1.12 1.12 0.0 0 1 428.98 457.00
  L 381.09 457.05
  Q 380.37 457.05 379.75 456.68
  L 374.82 453.78
  A 1.65 1.65 0.0 0 1 374.01 452.36
  Q 374.22 416.42 373.50 379.72
  Q 373.41 374.65 377.00 371.46
  Q 377.40 371.10 377.95 371.10
  L 428.59 371.10
  A 2.27 2.27 0.0 0 1 430.23 371.80
  L 433.60 375.33
  A 1.50 1.48 -67.1 0 1 434.01 376.36
  Q 434.12 411.45 433.90 442.75
  Z
  M 411.91 391.60
  A 1.73 1.73 0.0 0 0 410.35 389.88
  L 397.79 388.64
  A 1.73 1.73 0.0 0 0 395.89 390.38
  L 396.31 437.66
  A 1.73 1.73 0.0 0 0 397.91 439.37
  L 410.04 440.23
  A 1.73 1.73 0.0 0 0 411.89 438.50
  L 411.91 391.60
  Z"
/>
<path fill="#000000" d="
  M 472.87 437.25
  Q 473.50 437.97 474.44 437.81
  C 479.60 436.96 484.55 437.95 489.56 437.54
  Q 495.35 437.08 501.68 437.12
  A 1.90 1.90 0.0 0 1 503.57 438.97
  L 504.04 456.24
  A 0.76 0.76 0.0 0 1 503.28 457.03
  L 450.50 457.01
  A 5.35 5.34 -89.6 0 1 445.16 451.58
  Q 445.26 445.11 444.58 438.02
  Q 444.33 435.37 446.21 433.60
  Q 462.88 417.83 480.52 399.94
  A 1.73 1.73 0.0 0 0 481.00 398.41
  L 480.06 393.06
  Q 479.72 391.08 477.71 391.11
  Q 472.39 391.20 467.75 390.38
  A 1.41 1.41 0.0 0 0 466.15 391.38
  L 464.46 397.38
  Q 464.01 398.97 462.35 399.04
  C 457.60 399.21 448.21 399.70 445.36 395.69
  A 1.62 1.60 28.4 0 1 445.07 394.74
  Q 445.25 386.24 445.23 377.77
  Q 445.23 374.10 448.77 374.01
  Q 449.30 373.99 449.74 373.69
  C 451.03 372.80 452.44 373.25 453.93 372.24
  Q 454.50 371.86 455.18 371.95
  Q 456.27 372.09 457.17 371.45
  Q 457.68 371.08 458.31 371.09
  Q 464.28 371.11 470.07 371.09
  C 472.47 371.09 474.68 371.98 477.01 371.91
  Q 488.39 371.57 498.99 372.95
  Q 499.68 373.04 499.92 373.69
  Q 500.89 376.27 502.15 379.00
  Q 503.13 381.12 503.08 383.91
  Q 502.86 395.52 503.03 406.47
  A 2.54 2.52 -22.5 0 1 502.24 408.35
  L 472.93 436.13
  A 0.81 0.81 0.0 0 0 472.87 437.25
  Z"
/>
<path fill="#000000" d="
  M 537.54 403.00
  L 547.47 403.00
  Q 548.90 403.00 548.91 401.57
  Q 548.94 398.01 548.70 394.50
  Q 547.99 384.10 548.23 373.01
  A 1.10 1.09 0.5 0 1 549.33 371.94
  Q 552.50 371.94 555.78 371.93
  Q 558.75 371.91 561.76 371.40
  Q 565.48 370.76 569.88 371.21
  Q 570.80 371.30 570.78 372.23
  L 570.10 401.59
  A 2.04 2.04 0.0 0 0 572.10 403.68
  L 575.94 403.76
  A 1.62 1.62 0.0 0 1 577.52 405.44
  L 576.92 424.34
  A 0.77 0.77 0.0 0 1 576.15 425.08
  L 571.28 425.02
  A 1.20 1.20 0.0 0 0 570.07 426.22
  L 569.99 453.95
  Q 569.98 455.97 567.96 456.00
  C 563.91 456.08 560.04 455.96 556.06 456.76
  Q 553.10 457.37 550.07 456.85
  A 1.00 1.00 0.0 0 1 549.24 455.88
  L 548.87 425.14
  A 1.30 1.30 0.0 0 0 547.55 423.86
  Q 541.69 423.94 535.77 423.72
  Q 532.15 423.58 527.80 423.13
  Q 523.84 422.71 519.82 423.04
  A 2.72 2.70 -18.4 0 1 517.34 421.81
  Q 516.58 420.64 515.47 419.80
  Q 515.04 419.48 514.92 418.96
  C 514.35 416.56 514.67 414.38 514.72 411.98
  Q 515.06 393.57 514.92 374.96
  A 1.76 1.76 0.0 0 1 516.65 373.18
  Q 524.00 373.06 532.45 372.79
  C 533.42 372.76 534.36 372.29 535.28 372.36
  Q 537.00 372.49 537.00 374.21
  Q 536.99 388.71 536.94 402.39
  A 0.61 0.60 90.0 0 0 537.54 403.00
  Z"
/>
<path fill="#ed292d" d="
  M 137.56 379.49
  Q 126.93 390.74 116.13 401.77
  C 115.21 402.72 114.79 404.13 113.84 405.21
  Q 113.40 405.71 113.28 405.05
  Q 112.89 402.93 114.13 401.63
  Q 124.51 390.78 134.64 380.64
  Q 135.20 380.08 135.38 379.30
  Q 135.76 378.75 136.25 378.76
  Q 137.25 378.77 137.56 379.49
  Z"
/>
<path fill="#ed292d" d="
  M 117.28 405.27
  Q 117.43 418.13 117.38 431.00
  Q 117.31 448.17 117.40 465.34
  Q 117.40 465.38 117.36 465.38
  Q 117.25 465.38 117.33 465.38
  Q 117.34 465.38 117.35 465.36
  Q 117.51 464.16 117.17 463.22
  L 117.28 405.27
  Z"
/>
<path fill="#ed292d" d="
  M 117.22 467.95
  Q 137.72 467.79 158.06 467.92
  C 164.37 467.96 171.41 468.54 176.98 471.79
  Q 179.17 473.07 179.26 475.05
  L 175.95 472.53
  Q 167.67 470.03 161.51 469.76
  Q 156.08 469.53 147.15 470.65
  L 114.47 470.80
  A 1.58 1.58 0.0 0 1 112.89 469.23
  Q 112.76 438.05 113.09 407.32
  Q 113.12 404.74 113.95 407.19
  Q 114.98 410.24 114.99 414.75
  Q 115.03 438.40 114.61 461.37
  Q 114.58 462.96 113.65 466.43
  Q 113.50 467.03 113.99 467.40
  L 116.42 469.21
  Q 116.86 469.54 117.14 469.07
  Q 117.34 468.73 117.22 467.95
  Z"
/>
<path fill="#000000" d="
  M 175.95 472.53
  Q 172.46 472.22 169.12 471.65
  Q 165.14 470.98 162.31 470.89
  Q 154.79 470.67 147.15 470.65
  Q 156.08 469.53 161.51 469.76
  Q 167.67 470.03 175.95 472.53
  Z"
/>
<path fill="#ed292d" d="
  M 424.86 517.57
  L 424.73 527.26
  A 1.66 1.66 0.0 0 0 426.40 528.94
  Q 436.16 528.86 446.49 530.10
  A 1.53 1.53 0.0 0 1 447.85 531.59
  L 448.12 543.47
  Q 448.16 544.85 446.78 544.84
  L 409.00 544.81
  A 0.81 0.81 0.0 0 1 408.20 544.00
  L 408.20 478.25
  A 1.17 1.16 -88.2 0 1 409.44 477.08
  Q 415.16 477.42 420.64 477.70
  C 428.99 478.13 437.51 477.81 445.61 478.40
  A 1.39 1.38 2.4 0 1 446.90 479.80
  L 446.71 492.23
  A 1.28 1.26 86.3 0 1 445.62 493.48
  Q 443.23 493.81 440.67 493.62
  Q 433.10 493.07 426.18 493.07
  A 1.26 1.26 0.0 0 0 424.92 494.33
  L 424.94 501.43
  A 0.68 0.68 0.0 0 0 425.49 502.10
  Q 431.64 503.30 437.40 502.96
  A 1.36 1.35 88.2 0 1 438.83 504.31
  L 438.92 516.17
  A 0.84 0.83 -0.3 0 1 438.08 517.01
  L 425.44 516.99
  A 0.58 0.58 0.0 0 0 424.86 517.57
  Z"
/>
<path fill="#ed292d" d="
  M 492.64 507.57
  A 0.75 0.68 87.1 0 0 492.55 507.68
  Q 489.25 512.80 485.49 518.29
  Q 484.54 519.68 483.62 518.26
  L 477.79 509.23
  Q 475.51 505.71 474.94 509.87
  Q 474.78 511.03 474.79 512.29
  C 474.82 519.58 475.03 526.90 474.28 534.19
  Q 473.85 538.45 474.05 543.11
  A 0.53 0.53 0.0 0 1 473.55 543.66
  L 458.02 544.50
  A 1.40 1.40 0.0 0 1 456.54 543.02
  C 456.73 539.66 457.06 536.31 457.04 532.95
  Q 456.90 505.92 457.31 479.20
  A 2.16 2.15 -89.1 0 1 459.50 477.07
  L 473.07 477.29
  A 3.10 3.08 74.1 0 1 475.65 478.74
  L 483.56 491.37
  A 1.16 1.15 -45.5 0 0 485.52 491.35
  L 493.39 478.43
  A 1.55 1.55 0.0 0 1 494.73 477.69
  L 511.27 477.89
  A 0.49 0.49 0.0 0 1 511.76 478.37
  C 512.15 499.20 512.86 521.39 512.79 543.12
  A 1.75 1.74 3.4 0 1 510.84 544.84
  Q 503.29 543.97 496.77 543.98
  A 1.41 1.40 86.6 0 1 495.37 542.73
  Q 494.90 538.64 494.99 535.06
  Q 495.30 522.46 493.90 507.68
  Q 493.88 507.45 493.71 507.30
  Q 493.30 506.91 492.64 507.57
  Z"
/>
<path fill="#ed292d" d="
  M 320.75 517.74
  L 320.75 527.05
  Q 320.75 528.92 322.62 528.92
  Q 332.94 528.91 342.69 530.08
  A 1.14 1.13 2.9 0 1 343.69 531.18
  L 343.98 543.78
  A 1.13 1.13 0.0 0 1 342.85 544.94
  L 305.55 544.80
  A 1.50 1.49 90.0 0 1 304.06 543.30
  L 304.03 478.70
  Q 304.02 477.18 305.55 477.23
  L 341.47 478.41
  Q 342.98 478.46 342.98 479.97
  L 342.94 491.58
  Q 342.93 493.85 340.66 493.77
  L 322.24 493.10
  A 1.42 1.42 0.0 0 0 320.76 494.52
  L 320.76 500.94
  Q 320.76 501.95 321.75 502.13
  Q 328.20 503.27 333.66 502.99
  A 1.06 1.05 88.5 0 1 334.77 504.05
  L 334.78 516.49
  A 0.52 0.52 0.0 0 1 334.26 517.01
  L 321.51 516.99
  Q 320.75 516.99 320.75 517.74
  Z"
/>
<path fill="#ed292d" d="
  M 387.67 494.02
  Q 385.24 494.02 385.17 496.46
  C 384.91 505.32 385.12 513.78 384.33 522.72
  Q 383.49 532.21 383.83 541.51
  A 2.18 2.18 0.0 0 1 381.55 543.77
  Q 375.60 543.50 369.24 545.02
  C 367.83 545.35 365.91 544.83 365.99 543.04
  Q 367.07 519.66 366.96 495.84
  A 1.87 1.86 88.4 0 0 365.00 493.98
  Q 359.99 494.22 354.37 493.72
  Q 352.84 493.59 352.79 492.05
  L 352.38 479.20
  A 1.47 1.46 -3.1 0 1 353.73 477.70
  Q 359.02 477.30 364.50 477.34
  Q 381.03 477.49 398.41 477.56
  A 1.49 1.49 0.0 0 1 399.87 479.27
  Q 398.87 486.10 398.92 492.33
  A 1.66 1.66 0.0 0 1 397.26 494.00
  L 387.67 494.02
  Z"
/>
<path fill="#ed292d" d="
  M 537.83 517.78
  L 537.81 542.98
  Q 537.81 543.86 536.93 543.87
  Q 530.30 543.94 523.53 544.91
  Q 521.10 545.25 521.10 542.79
  L 521.04 479.27
  A 1.88 1.88 0.0 0 1 522.98 477.39
  L 559.25 478.50
  A 0.89 0.78 -89.3 0 1 560.01 479.39
  L 559.98 492.19
  A 1.14 1.14 0.0 0 1 558.81 493.33
  L 539.46 492.83
  A 1.50 1.50 0.0 0 0 537.92 494.29
  L 537.74 500.94
  Q 537.72 501.78 538.49 502.12
  C 541.78 503.57 547.36 503.04 550.76 502.99
  A 1.03 1.03 0.0 0 1 551.80 504.01
  L 551.80 516.44
  A 0.73 0.72 -89.2 0 1 551.06 517.17
  L 538.80 516.84
  A 0.94 0.94 0.0 0 0 537.83 517.78
  Z"
/>
<path fill="#ed292d" d="
  M 585.98 528.17
  Q 585.99 528.97 586.78 528.97
  L 606.75 529.02
  Q 608.99 529.02 609.24 531.25
  L 610.63 543.53
  A 1.30 1.29 86.8 0 1 609.35 544.97
  L 570.00 544.97
  A 1.81 1.80 89.8 0 1 568.20 543.17
  Q 568.12 531.93 568.58 520.74
  C 569.16 506.99 568.97 492.56 568.98 478.64
  A 1.35 1.35 0.0 0 1 570.41 477.29
  L 585.09 478.18
  A 1.41 1.41 0.0 0 1 586.41 479.63
  Q 585.64 502.73 585.98 528.17
  Z"
/>
</svg>
